<?xml version="1.0" encoding="utf-8"?>
<!-- Svg Vector Icons : http://www.onlinewebfonts.com/icon -->
<!DOCTYPE svg PUBLIC "-//W3C//DTD SVG 1.1//EN" "http://www.w3.org/Graphics/SVG/1.1/DTD/svg11.dtd">
<svg version="1.1" xmlns="http://www.w3.org/2000/svg" xmlns:xlink="http://www.w3.org/1999/xlink" x="0px" y="0px" viewBox="0 0 1000 1000" enable-background="new 0 0 1000 1000" xml:space="preserve">
<metadata> Svg Vector Icons : http://www.onlinewebfonts.com/icon </metadata>
<g><g transform="translate(0.000000,511.000000) scale(0.100000,-0.100000)"><path d="M4805.1,4999.5c-676.6-91.6-1230.3-633.7-1368.8-1339.5c-21.4-113.1-27.3-351-27.3-1111.4v-965.2l-230.1-234l-232-232l-612.2-122.8c-645.4-130.6-727.3-152.1-848.2-230.1C1084.9,511,966-62.2,1231.1-460c89.7-134.6,4192.1-4233,4283.7-4279.8c37-17.6,130.6-37.1,210.6-42.9c265.2-17.5,144.3-122.8,1881.6,1612.5C9330.6-1450.5,9270.2-1520.7,9266.3-1277c0,91.6-13.7,152.1-44.9,214.5c-31.2,62.4-423.1,466-1318.1,1364.9L6628.2,1579.5l-7.8,1033.4c-5.8,994.4-7.8,1039.2-48.7,1189.4c-191.1,692.2-762.4,1162.1-1466.3,1205C5013.7,5013.1,4879.2,5009.2,4805.1,4999.5z M5251.6,4640.7c372.4-70.2,717.5-333.4,885.2-672.7c130.6-267.1,138.5-329.5,138.5-1238.1v-799.4l-471.9,471.9c-528.4,524.5-575.2,557.6-776,559.6c-228.1,2-234-3.9-774.1-540.1L3760,1932.4v807.2c0,752.6,2,820.9,39,951.5c109.2,393.9,368.5,705.8,721.4,867.7C4756.4,4666,4984.5,4693.3,5251.6,4640.7z M7000.6,717.7c2047.3-2047.3,1973.2-1965.4,1895.2-2086.3c-19.5-29.3-717.5-735.1-1552.1-1563.8C5900.9-4371.3,5824.9-4443.4,5758.6-4443.4c-66.3,0-101.4,31.2-532.3,462.1l-462.1,462.1l978.8,978.8c939.8,943.7,978.8,984.6,1008,1086c39,134.5,39,200.8,0,335.4c-29.2,99.4-64.4,138.4-735.1,813c-637.6,639.5-715.6,709.7-813.1,746.8c-134.5,50.7-302.2,42.9-429-21.4C4713.5,390.1,4393.7,86,3730.8-577l-955.4-953.5l-464,464c-423.1,425.1-462.1,469.9-462.1,530.4c0,62.4,56.5,124.8,779.9,848.2l779.9,779.9V891.2c0-187.2,3.9-204.7,48.7-247.6c50.7-52.6,140.4-64.3,208.6-27.3c76,40.9,93.6,130.6,93.6,489.4V1443l590.8,590.8c575.2,573.3,592.7,588.8,666.8,588.8C5093.7,2622.7,5117.1,2601.2,7000.6,717.7z M2473.2,667c0-3.9-185.2-189.1-409.5-415.3C1837.5,27.5,1628.9-189,1601.6-229.9c-48.7-72.1-54.6-74.1-79.9-39c-148.2,193-107.2,516.7,87.7,688.3c105.3,91.6,146.2,107.2,532.3,187.2C2479,676.8,2473.2,674.8,2473.2,667z M5762.5-541.9c653.2-653.2,668.8-668.8,668.8-744.8s-15.6-93.6-955.4-1033.4l-955.4-955.4l-750.7,750.7l-750.7,750.7l951.5,951.5l951.5,949.6h85.8h87.8L5762.5-541.9z"/><path d="M1316.9-1378.3c-95.5-97.5-429-776-532.3-1091.9c-99.4-298.3-56.5-540.1,130.6-746.8c136.5-148.2,269.1-210.6,475.7-220.3c343.2-17.6,614.2,165.7,713.6,485.5c52.6,169.6,46.8,265.2-35.1,510.8c-79.9,241.8-448.5,1002.2-516.7,1064.6C1492.4-1319.9,1373.5-1321.8,1316.9-1378.3z M1597.7-2201.2c189.1-409.5,222.3-546,165.7-680.5c-56.5-140.4-247.6-243.7-391.9-216.4c-140.4,25.4-269.1,156-294.4,298.3c-17.5,91.6,62.4,329.5,226.2,674.6C1445.6-1826.8,1422.2-1820.9,1597.7-2201.2z"/></g></g>
</svg>